PathFileType	4	(x/y/z)	S06_P20_T09
DataRate	CameraRate	NumFrames	NumMarkers	Units	OrigDataRate	OrigDataStartFrame	OrigNumFrames
240	240	5	51	mm	240	208	332
Frame#	Time	Sternum			R.Acromium			L.Acromium			Top.Head			R.ASIS			L.ASIS			R.PSIS			L.PSIS			R.Great.Tro			L.Great.Tro			R.Iliac.Crest			L.Iliac.Crest			V.Sacral			R.Thigh.Upper.Post			R.Thigh.Lower.Ant			R.Thigh.Lower.Post			R.Thigh.Upper.Ant			R.Knee.Lat			R.Knee.Med			R.Shank.Upper.Post			R.Shank.Lower.Ant			R.Shank.Lower.Post			R.Shank.Upper.Ant			R.Ankle.Lat			R.Ankle.Med			R.Heel.Upper			R.Heel.Med			R.Heel.Lat			R.Toe.Lat			R.Toe.Med			R.Toe.Tip			L.Thigh.Upper.Post			L.Thigh.Lower.Ant			L.Thigh.Lower.Post			L.Thigh.Upper.Ant			L.Knee.Lat			L.Knee.Med			L.Shank.Upper.Post			L.Shank.Lower.Ant			L.Shank.Lower.Post			L.Shank.Upper.Ant			L.Ankle.Lat			L.Ankle.Med			L.Heel.Upper			L.Heel.Med			L.Heel.Lat			L.Toe.Lat			L.Toe.Med			L.Toe.Tip			Cervical.Spine			Back			
		X1	Y1	Z1	X2	Y2	Z2	X3	Y3	Z3	X4	Y4	Z4	X5	Y5	Z5	X6	Y6	Z6	X7	Y7	Z7	X8	Y8	Z8	X9	Y9	Z9	X10	Y10	Z10	X11	Y11	Z11	X12	Y12	Z12	X13	Y13	Z13	X14	Y14	Z14	X15	Y15	Z15	X16	Y16	Z16	X17	Y17	Z17	X18	Y18	Z18	X19	Y19	Z19	X20	Y20	Z20	X21	Y21	Z21	X22	Y22	Z22	X23	Y23	Z23	X24	Y24	Z24	X25	Y25	Z25	X26	Y26	Z26	X27	Y27	Z27	X28	Y28	Z28	X29	Y29	Z29	X30	Y30	Z30	X31	Y31	Z31	X32	Y32	Z32	X33	Y33	Z33	X34	Y34	Z34	X35	Y35	Z35	X36	Y36	Z36	X37	Y37	Z37	X38	Y38	Z38	X39	Y39	Z39	X40	Y40	Z40	X41	Y41	Z41	X42	Y42	Z42	X43	Y43	Z43	X44	Y44	Z44	X45	Y45	Z45	X46	Y46	Z46	X47	Y47	Z47	X48	Y48	Z48	X49	Y49	Z49	X50	Y50	Z50	X51	Y51	Z51	

208	0.8625	-149.47	1279.3	313.32	-261.84	1487.6	489.55	-284.77	1489.6	137.67	-214.22	1804.1	309.49	-207.18	1041.5	444.51	-202.18	1039.7	190.26	NaN	NaN	NaN	-403.44	1069.3	267.52	-271.71	977.07	493.05	-289.39	970.47	134.65	-287.48	1121.2	472.5	-271.55	1113.1	153.16	-416.5	1033.5	311.86	-305.79	726.93	473.17	-262.96	641.23	435.66	-330.3	643.43	452.62	-234.17	725.71	455.75	-334.09	527.52	431.71	-329.6	537.76	304.9	-450.47	324.28	425.57	-417.12	245.02	398.08	-481.03	254.92	408.12	-386.46	313.93	416.02	-501.25	120.59	376.3	-487.84	122.2	289.56	-576.77	89.104	328.74	-570.53	55.776	300.27	-571.86	58.739	364.96	-398.42	37.427	410.98	-368.57	38.128	289.76	-302.49	46.283	338.24	-154.21	728.9	150.09	-87.228	669.5	214.46	-145.56	639.89	169.41	-104.8	760.78	192.75	-127.46	551.66	188.99	-104.89	564.04	311.33	-92.013	324.04	196.41	-9.6138	289.39	191.81	-69.587	254.95	212.33	-34.724	355.73	182.55	31.051	131.63	204.77	40.723	146.91	294.87	-18.239	63.85	254.58	2.0101	44.542	288.92	1.3565	41.473	227.38	161.41	116.4	182.35	177.32	140.19	297.35	231.41	183.54	241.08	-327.84	1541.3	317.27	-389.9	1269.6	317.75
209	0.86667	-143.57	1278.6	313.02	-256.01	1486.8	489.32	-279.02	1488.8	137.42	-208.75	1803.4	309.24	-201.26	1040.8	444.34	-196.23	1038.7	190.05	NaN	NaN	NaN	-397.53	1068.4	267.16	-265.94	976.52	492.83	-283.4	969.55	134.51	-281.6	1120.5	472.2	-265.58	1112.2	152.85	-410.59	1032.6	311.5	-300.63	726.56	473.09	-257.92	640.74	435.83	-325.26	643.08	452.61	-228.91	725.17	455.89	-329.52	527.13	431.8	-324.74	537.27	305.01	-447.69	324.89	425.62	-415.13	245.3	398.09	-478.88	255.81	408.18	-383.72	313.92	416.11	-500.39	121.55	376.31	-487.04	123.2	289.61	-576.14	90.688	328.75	-570.17	57.367	300.22	-571.49	60.24	364.91	-398.27	37.415	410.98	-368.36	38.111	289.75	-302.3	45.971	338.3	-148.39	728.05	150.3	-81.57	668.7	214.89	-139.84	639.05	169.75	-99.071	759.96	193.03	-121.56	550.93	189.29	-99.532	563.24	311.79	-85.452	323.36	196.24	-2.9205	288.97	192.24	-62.965	254.3	212.18	-28.128	355.25	182.99	38.178	131.26	205	46.982	146.48	295.21	-11.119	63.29	254.15	8.763	44.013	288.62	8.7751	41.042	227.1	168.97	116.63	183.8	183.41	140.59	298.99	237.9	184.18	243.32	-322.09	1540.6	317.05	-384.02	1268.8	317.46
210	0.87083	-137.67	1277.8	312.7	-250.18	1486.1	489.09	-273.28	1488	137.15	-203.27	1802.8	308.99	-195.33	1040.2	444.17	-190.28	1037.8	189.82	NaN	NaN	NaN	-391.61	1067.5	266.8	-260.16	975.99	492.6	-277.38	968.65	134.36	-275.72	1119.8	471.89	-259.61	1111.3	152.54	-404.66	1031.8	311.14	-295.38	726.2	473.02	-252.76	640.27	436.03	-320.1	642.73	452.61	-223.55	724.66	456.05	-324.8	526.75	431.92	-319.71	536.77	305.16	-444.8	325.54	425.69	-413.04	245.62	398.14	-476.62	256.77	408.26	-380.89	313.95	416.23	-499.45	122.59	376.35	-486.18	124.29	289.7	-575.45	92.409	328.79	-569.76	59.106	300.19	-571.08	61.869	364.89	-398.11	37.403	410.97	-368.14	38.11	289.74	-302.12	45.67	338.36	-142.45	727.29	150.54	-75.75	667.99	215.31	-133.97	638.3	170.09	-93.195	759.22	193.31	-115.55	550.25	189.58	-94.002	562.5	312.19	-79.16	322.69	196.1	3.4318	288.41	192.69	-56.73	253.64	212.07	-21.761	354.68	183.43	44.694	130.74	205.26	52.68	145.89	295.58	-4.6947	62.738	253.77	14.767	43.445	288.34	15.433	40.59	226.86	175.88	116.49	185.25	188.89	140.57	300.64	243.86	184.3	245.55	-316.33	1539.9	316.81	-378.13	1268	317.16
211	0.875	-131.78	1277.1	312.36	-244.34	1485.3	488.84	-267.55	1487.3	136.87	-197.77	1802.2	308.75	-189.4	1039.5	443.99	-184.29	1036.9	189.57	NaN	NaN	NaN	-385.68	1066.7	266.44	-254.38	975.49	492.36	-271.33	967.78	134.21	-269.83	1119.1	471.58	-253.65	1110.4	152.23	-398.72	1031	310.78	-290.04	725.85	472.96	-247.48	639.81	436.27	-314.83	642.38	452.62	-218.11	724.18	456.23	-319.93	526.36	432.08	-314.52	536.26	305.34	-441.78	326.24	425.79	-410.84	246	398.23	-474.27	257.8	408.37	-377.96	314.01	416.39	-498.45	123.71	376.42	-485.26	125.47	289.82	-574.68	94.275	328.86	-569.31	61	300.19	-570.61	63.634	364.9	-397.94	37.392	410.98	-367.92	38.125	289.73	-301.94	45.38	338.41	-136.4	726.6	150.81	-69.782	667.35	215.7	-127.97	637.62	170.45	-87.184	758.56	193.57	-109.43	549.62	189.85	-88.306	561.82	312.53	-73.137	322.03	196.01	9.4485	287.74	193.14	-50.871	252.96	212.01	-15.625	354.02	183.88	50.621	130.09	205.55	57.849	145.13	295.99	1.0613	62.202	253.45	20.054	42.846	288.11	21.353	40.123	226.66	182.15	115.99	186.7	193.81	140.16	302.27	249.3	183.92	247.76	-310.58	1539.2	316.57	-372.25	1267.2	316.85
212	0.87917	-125.89	1276.4	311.99	-238.5	1484.6	488.58	-261.83	1486.6	136.57	-192.26	1801.6	308.5	-183.46	1039	443.81	-178.29	1036.1	189.31	NaN	NaN	NaN	-379.73	1065.9	266.09	-248.58	975.02	492.12	-265.26	966.94	134.07	-263.93	1118.5	471.27	-247.68	1109.6	151.91	-392.77	1030.2	310.43	-284.61	725.51	472.92	-242.07	639.37	436.55	-309.43	642.03	452.66	-212.57	723.74	456.44	-314.89	525.98	432.27	-309.16	535.74	305.56	-438.64	327	425.92	-408.54	246.43	398.37	-471.8	258.9	408.51	-374.91	314.11	416.57	-497.37	124.92	376.53	-484.27	126.73	289.98	-573.83	96.293	328.97	-568.79	63.06	300.21	-570.08	65.544	364.93	-397.75	37.383	410.99	-367.69	38.157	289.73	-301.77	45.101	338.47	-130.26	725.98	151.08	-63.679	666.79	216.07	-121.85	637.01	170.8	-81.05	757.97	193.82	-103.22	549.04	190.11	-82.449	561.22	312.8	-67.377	321.37	195.98	15.139	286.94	193.61	-45.374	252.26	212.01	-9.7175	353.26	184.32	55.986	129.31	205.88	62.526	144.23	296.44	6.1813	61.692	253.18	24.663	42.227	287.92	26.566	39.649	226.5	187.82	115.13	188.13	198.2	139.34	303.87	254.27	183.05	249.93	-304.83	1538.6	316.32	-366.37	1266.5	316.53
